<svg width="358" height="272" viewBox="0 0 358 272" fill="none" xmlns="http://www.w3.org/2000/svg">
<mask id="mask0_832_29" style="mask-type:luminance" maskUnits="userSpaceOnUse" x="52" y="11" width="253" height="253">
<path d="M267.971 226.188C317.156 177.003 317.156 97.2572 267.971 48.0717C218.785 -1.11371 139.04 -1.11373 89.8545 48.0717C40.6691 97.2572 40.6691 177.003 89.8545 226.188C139.04 275.373 218.785 275.373 267.971 226.188Z" fill="white"/>
</mask>
<g mask="url(#mask0_832_29)">
<path d="M54.1875 216.364L51.9094 218.645L60.646 227.37L62.9241 225.088L54.1875 216.364Z" fill="#FACD49"/>
<path d="M51.9038 225.108L54.1851 227.386L62.9094 218.65L60.6281 216.372L51.9038 225.108Z" fill="#FACD49"/>
<path d="M54.218 239.446L51.9399 241.727L60.6765 250.451L62.9546 248.17L54.218 239.446Z" fill="#FACD49"/>
<path d="M51.9221 248.177L54.2034 250.456L62.9277 241.719L60.6464 239.441L51.9221 248.177Z" fill="#FACD49"/>
<path d="M54.2293 260.905L51.9512 263.186L60.6877 271.911L62.9658 269.629L54.2293 260.905Z" fill="#FACD49"/>
<path d="M51.9472 269.672L54.2285 271.95L62.9529 263.213L60.6716 260.935L51.9472 269.672Z" fill="#FACD49"/>
<path d="M54.1555 148.011L51.8774 150.292L60.614 159.017L62.8921 156.736L54.1555 148.011Z" fill="#FACD49"/>
<path d="M51.8554 156.728L54.1367 159.006L62.8611 150.27L60.5798 147.992L51.8554 156.728Z" fill="#FACD49"/>
<path d="M54.1558 171.081L51.8777 173.362L60.6142 182.086L62.8923 179.805L54.1558 171.081Z" fill="#FACD49"/>
<path d="M51.8789 179.828L54.1602 182.106L62.8845 173.369L60.6032 171.091L51.8789 179.828Z" fill="#FACD49"/>
<path d="M54.179 192.545L51.9009 194.826L60.6374 203.55L62.9155 201.269L54.179 192.545Z" fill="#FACD49"/>
<path d="M51.8908 201.291L54.1721 203.569L62.8965 194.833L60.6152 192.555L51.8908 201.291Z" fill="#FACD49"/>
<path d="M54.1072 79.615L51.8291 81.8962L60.5656 90.6206L62.8437 88.3393L54.1072 79.615Z" fill="#FACD49"/>
<path d="M51.8183 88.365L54.0996 90.6431L62.824 81.9065L60.5427 79.6284L51.8183 88.365Z" fill="#FACD49"/>
<path d="M54.107 102.727L51.8289 105.008L60.5654 113.732L62.8435 111.451L54.107 102.727Z" fill="#FACD49"/>
<path d="M51.8484 111.446L54.1296 113.724L62.854 104.988L60.5727 102.71L51.8484 111.446Z" fill="#FACD49"/>
<path d="M54.1304 124.191L51.8523 126.472L60.5888 135.197L62.8669 132.915L54.1304 124.191Z" fill="#FACD49"/>
<path d="M51.8613 132.91L54.1426 135.188L62.8669 126.451L60.5856 124.173L51.8613 132.91Z" fill="#FACD49"/>
<path d="M54.0457 11.2668L51.7676 13.5481L60.5041 22.2725L62.7822 19.9912L54.0457 11.2668Z" fill="#FACD49"/>
<path d="M51.7758 19.9963L54.0571 22.2744L62.7815 13.5379L60.5002 11.2598L51.7758 19.9963Z" fill="#FACD49"/>
<path d="M54.0767 34.3305L51.7986 36.6118L60.5351 45.3362L62.8132 43.0549L54.0767 34.3305Z" fill="#FACD49"/>
<path d="M51.7939 43.0654L54.0752 45.3435L62.7996 36.607L60.5183 34.3289L51.7939 43.0654Z" fill="#FACD49"/>
<path d="M54.0821 55.7949L51.804 58.0762L60.5405 66.8005L62.8186 64.5192L54.0821 55.7949Z" fill="#FACD49"/>
<path d="M51.8071 64.5469L54.0884 66.825L62.8127 58.0884L60.5315 55.8103L51.8071 64.5469Z" fill="#FACD49"/>
<path d="M78.4614 216.363L76.1833 218.644L84.9199 227.368L87.198 225.087L78.4614 216.363Z" fill="#FACD49"/>
<path d="M76.1699 225.085L78.4512 227.363L87.1755 218.627L84.8942 216.349L76.1699 225.085Z" fill="#FACD49"/>
<path d="M101.421 216.339L99.1426 218.62L107.879 227.344L110.157 225.063L101.421 216.339Z" fill="#FACD49"/>
<path d="M99.1396 225.066L101.421 227.344L110.145 218.608L107.864 216.33L99.1396 225.066Z" fill="#FACD49"/>
<path d="M124.349 216.32L122.071 218.601L130.807 227.326L133.085 225.044L124.349 216.32Z" fill="#FACD49"/>
<path d="M122.096 225.06L124.377 227.338L133.102 218.602L130.821 216.323L122.096 225.06Z" fill="#FACD49"/>
<path d="M147.307 216.325L145.029 218.606L153.765 227.33L156.043 225.049L147.307 216.325Z" fill="#FACD49"/>
<path d="M145.004 225.041L147.285 227.319L156.01 218.583L153.728 216.305L145.004 225.041Z" fill="#FACD49"/>
<path d="M170.236 216.288L167.958 218.569L176.694 227.294L178.972 225.012L170.236 216.288Z" fill="#FACD49"/>
<path d="M167.962 225.035L170.243 227.313L178.967 218.576L176.686 216.298L167.962 225.035Z" fill="#FACD49"/>
<path d="M78.4929 239.409L76.2148 241.69L84.9514 250.414L87.2295 248.133L78.4929 239.409Z" fill="#FACD49"/>
<path d="M76.1884 248.172L78.4697 250.45L87.1941 241.713L84.9128 239.435L76.1884 248.172Z" fill="#FACD49"/>
<path d="M101.42 239.407L99.1423 241.689L107.879 250.413L110.157 248.132L101.42 239.407Z" fill="#FACD49"/>
<path d="M99.1264 248.165L101.408 250.443L110.132 241.707L107.851 239.429L99.1264 248.165Z" fill="#FACD49"/>
<path d="M124.379 239.419L122.101 241.701L130.837 250.425L133.115 248.144L124.379 239.419Z" fill="#FACD49"/>
<path d="M122.096 248.146L124.377 250.425L133.102 241.688L130.821 239.41L122.096 248.146Z" fill="#FACD49"/>
<path d="M147.32 239.388L145.042 241.669L153.779 250.394L156.057 248.113L147.32 239.388Z" fill="#FACD49"/>
<path d="M145.022 248.11L147.304 250.388L156.028 241.652L153.747 239.374L145.022 248.11Z" fill="#FACD49"/>
<path d="M170.267 239.387L167.989 241.668L176.726 250.393L179.004 248.112L170.267 239.387Z" fill="#FACD49"/>
<path d="M167.962 248.103L170.243 250.382L178.967 241.645L176.686 239.367L167.962 248.103Z" fill="#FACD49"/>
<path d="M78.4981 260.891L76.22 263.172L84.9565 271.896L87.2346 269.615L78.4981 260.891Z" fill="#FACD49"/>
<path d="M76.2187 269.636L78.5 271.914L87.2244 263.177L84.9431 260.899L76.2187 269.636Z" fill="#FACD49"/>
<path d="M101.444 260.89L99.166 263.171L107.903 271.896L110.181 269.614L101.444 260.89Z" fill="#FACD49"/>
<path d="M99.1396 269.629L101.421 271.907L110.145 263.171L107.864 260.893L99.1396 269.629Z" fill="#FACD49"/>
<path d="M124.385 260.884L122.107 263.165L130.843 271.889L133.121 269.608L124.385 260.884Z" fill="#FACD49"/>
<path d="M122.109 269.61L124.39 271.888L133.114 263.152L130.833 260.874L122.109 269.61Z" fill="#FACD49"/>
<path d="M147.331 260.865L145.053 263.146L153.79 271.871L156.068 269.59L147.331 260.865Z" fill="#FACD49"/>
<path d="M145.047 269.604L147.329 271.883L156.053 263.146L153.772 260.868L145.047 269.604Z" fill="#FACD49"/>
<path d="M170.272 260.852L167.994 263.133L176.73 271.857L179.009 269.576L170.272 260.852Z" fill="#FACD49"/>
<path d="M167.974 269.568L170.255 271.846L178.979 263.109L176.698 260.831L167.974 269.568Z" fill="#FACD49"/>
<path d="M78.4131 147.991L76.135 150.272L84.8716 158.997L87.1497 156.715L78.4131 147.991Z" fill="#FACD49"/>
<path d="M76.1406 156.721L78.4219 159L87.1462 150.263L84.865 147.985L76.1406 156.721Z" fill="#FACD49"/>
<path d="M101.372 147.96L99.0942 150.241L107.831 158.965L110.109 156.684L101.372 147.96Z" fill="#FACD49"/>
<path d="M99.0842 156.702L101.365 158.98L110.09 150.244L107.809 147.966L99.0842 156.702Z" fill="#FACD49"/>
<path d="M124.317 147.959L122.039 150.24L130.776 158.965L133.054 156.683L124.317 147.959Z" fill="#FACD49"/>
<path d="M122.022 156.697L124.304 158.975L133.028 150.238L130.747 147.96L122.022 156.697Z" fill="#FACD49"/>
<path d="M147.246 147.923L144.968 150.204L153.705 158.928L155.983 156.647L147.246 147.923Z" fill="#FACD49"/>
<path d="M144.98 156.672L147.261 158.95L155.985 150.214L153.704 147.936L144.98 156.672Z" fill="#FACD49"/>
<path d="M170.193 147.922L167.915 150.203L176.651 158.927L178.929 156.646L170.193 147.922Z" fill="#FACD49"/>
<path d="M167.919 156.666L170.201 158.944L178.925 150.208L176.644 147.93L167.919 156.666Z" fill="#FACD49"/>
<path d="M78.4434 171.072L76.1653 173.354L84.9018 182.078L87.1799 179.797L78.4434 171.072Z" fill="#FACD49"/>
<path d="M76.1579 179.791L78.4392 182.069L87.1636 173.332L84.8823 171.054L76.1579 179.791Z" fill="#FACD49"/>
<path d="M101.384 171.041L99.1062 173.323L107.843 182.047L110.121 179.766L101.384 171.041Z" fill="#FACD49"/>
<path d="M99.1015 179.771L101.383 182.05L110.107 173.313L107.826 171.035L99.1015 179.771Z" fill="#FACD49"/>
<path d="M124.331 171.023L122.052 173.304L130.789 182.029L133.067 179.747L124.331 171.023Z" fill="#FACD49"/>
<path d="M122.041 179.765L124.322 182.043L133.046 173.307L130.765 171.029L122.041 179.765Z" fill="#FACD49"/>
<path d="M147.277 171.022L144.999 173.303L153.735 182.028L156.013 179.746L147.277 171.022Z" fill="#FACD49"/>
<path d="M144.98 179.759L147.261 182.037L155.986 173.301L153.705 171.022L144.98 179.759Z" fill="#FACD49"/>
<path d="M170.205 171.003L167.927 173.285L176.663 182.009L178.941 179.728L170.205 171.003Z" fill="#FACD49"/>
<path d="M167.936 179.752L170.218 182.031L178.942 173.294L176.661 171.016L167.936 179.752Z" fill="#FACD49"/>
<path d="M78.4485 192.554L76.1704 194.836L84.907 203.56L87.1851 201.279L78.4485 192.554Z" fill="#FACD49"/>
<path d="M76.1699 201.254L78.4512 203.532L87.1755 194.796L84.8943 192.518L76.1699 201.254Z" fill="#FACD49"/>
<path d="M101.395 192.519L99.1169 194.8L107.853 203.524L110.132 201.243L101.395 192.519Z" fill="#FACD49"/>
<path d="M99.1269 201.248L101.408 203.526L110.133 194.79L107.851 192.511L99.1269 201.248Z" fill="#FACD49"/>
<path d="M124.353 192.505L122.075 194.786L130.811 203.51L133.089 201.229L124.353 192.505Z" fill="#FACD49"/>
<path d="M122.053 201.229L124.334 203.507L133.058 194.771L130.777 192.493L122.053 201.229Z" fill="#FACD49"/>
<path d="M147.282 192.487L145.004 194.768L153.74 203.492L156.019 201.211L147.282 192.487Z" fill="#FACD49"/>
<path d="M144.992 201.223L147.273 203.501L155.998 194.765L153.717 192.487L144.992 201.223Z" fill="#FACD49"/>
<path d="M170.228 192.468L167.95 194.749L176.686 203.474L178.965 201.192L170.228 192.468Z" fill="#FACD49"/>
<path d="M167.949 201.217L170.23 203.495L178.954 194.758L176.673 192.48L167.949 201.217Z" fill="#FACD49"/>
<path d="M78.3823 79.6128L76.1042 81.894L84.8408 90.6184L87.1189 88.3371L78.3823 79.6128Z" fill="#FACD49"/>
<path d="M76.103 88.3406L78.3843 90.6187L87.1086 81.8821L84.8274 79.604L76.103 88.3406Z" fill="#FACD49"/>
<path d="M101.311 79.612L99.033 81.8933L107.77 90.6177L110.048 88.3364L101.311 79.612Z" fill="#FACD49"/>
<path d="M99.0239 88.3347L101.305 90.6128L110.03 81.8762L107.748 79.5982L99.0239 88.3347Z" fill="#FACD49"/>
<path d="M124.258 79.5932L121.979 81.8745L130.716 90.5989L132.994 88.3176L124.258 79.5932Z" fill="#FACD49"/>
<path d="M121.982 88.3281L124.263 90.6062L132.987 81.8697L130.706 79.5916L121.982 88.3281Z" fill="#FACD49"/>
<path d="M147.197 79.5622L144.919 81.8435L153.656 90.5679L155.934 88.2866L147.197 79.5622Z" fill="#FACD49"/>
<path d="M144.907 88.3096L147.188 90.5876L155.912 81.8511L153.631 79.573L144.907 88.3096Z" fill="#FACD49"/>
<path d="M170.157 79.5559L167.878 81.8372L176.615 90.5615L178.893 88.2802L170.157 79.5559Z" fill="#FACD49"/>
<path d="M167.858 88.2903L170.139 90.5684L178.864 81.8318L176.582 79.5537L167.858 88.2903Z" fill="#FACD49"/>
<path d="M78.3955 102.694L76.1174 104.976L84.854 113.7L87.1321 111.419L78.3955 102.694Z" fill="#FACD49"/>
<path d="M76.103 111.427L78.3843 113.705L87.1086 104.969L84.8274 102.691L76.103 111.427Z" fill="#FACD49"/>
<path d="M101.341 102.676L99.0627 104.957L107.799 113.681L110.077 111.4L101.341 102.676Z" fill="#FACD49"/>
<path d="M99.0595 111.421L101.341 113.699L110.065 104.962L107.784 102.684L99.0595 111.421Z" fill="#FACD49"/>
<path d="M124.269 102.675L121.991 104.956L130.728 113.68L133.006 111.399L124.269 102.675Z" fill="#FACD49"/>
<path d="M121.98 111.415L124.262 113.693L132.986 104.956L130.705 102.678L121.98 111.415Z" fill="#FACD49"/>
<path d="M147.228 102.626L144.95 104.907L153.687 113.631L155.965 111.35L147.228 102.626Z" fill="#FACD49"/>
<path d="M144.925 111.378L147.206 113.656L155.93 104.919L153.649 102.641L144.925 111.378Z" fill="#FACD49"/>
<path d="M170.157 102.607L167.878 104.889L176.615 113.613L178.893 111.332L170.157 102.607Z" fill="#FACD49"/>
<path d="M167.882 111.372L170.164 113.65L178.888 104.913L176.607 102.635L167.882 111.372Z" fill="#FACD49"/>
<path d="M78.4055 124.171L76.1274 126.452L84.864 135.177L87.1421 132.895L78.4055 124.171Z" fill="#FACD49"/>
<path d="M76.1279 132.904L78.4092 135.182L87.1335 126.445L84.8523 124.167L76.1279 132.904Z" fill="#FACD49"/>
<path d="M101.346 124.14L99.0684 126.421L107.805 135.146L110.083 132.864L101.346 124.14Z" fill="#FACD49"/>
<path d="M99.0542 132.885L101.335 135.163L110.06 126.427L107.779 124.148L99.0542 132.885Z" fill="#FACD49"/>
<path d="M124.293 124.122L122.015 126.403L130.751 135.127L133.03 132.846L124.293 124.122Z" fill="#FACD49"/>
<path d="M121.994 132.879L124.275 135.157L132.999 126.42L130.718 124.142L121.994 132.879Z" fill="#FACD49"/>
<path d="M147.221 124.103L144.943 126.384L153.68 135.109L155.958 132.827L147.221 124.103Z" fill="#FACD49"/>
<path d="M144.968 132.855L147.25 135.133L155.974 126.396L153.693 124.118L144.968 132.855Z" fill="#FACD49"/>
<path d="M170.18 124.089L167.902 126.371L176.638 135.095L178.916 132.814L170.18 124.089Z" fill="#FACD49"/>
<path d="M167.894 132.835L170.176 135.114L178.9 126.377L176.619 124.099L167.894 132.835Z" fill="#FACD49"/>
<path d="M78.3211 11.2468L76.043 13.5281L84.7795 22.2524L87.0576 19.9712L78.3211 11.2468Z" fill="#FACD49"/>
<path d="M76.0425 19.9905L78.3237 22.2686L87.0481 13.532L84.7668 11.2539L76.0425 19.9905Z" fill="#FACD49"/>
<path d="M101.261 11.2158L98.9834 13.4971L107.72 22.2214L109.998 19.9401L101.261 11.2158Z" fill="#FACD49"/>
<path d="M98.9865 19.9714L101.268 22.2495L109.992 13.513L107.711 11.2349L98.9865 19.9714Z" fill="#FACD49"/>
<path d="M124.221 11.2097L121.943 13.491L130.679 22.2153L132.957 19.934L124.221 11.2097Z" fill="#FACD49"/>
<path d="M121.938 19.9524L124.219 22.2305L132.944 13.4939L130.662 11.2158L121.938 19.9524Z" fill="#FACD49"/>
<path d="M147.166 11.209L144.888 13.4902L153.625 22.2146L155.903 19.9333L147.166 11.209Z" fill="#FACD49"/>
<path d="M144.895 19.9284L147.176 22.2065L155.9 13.47L153.619 11.1919L144.895 19.9284Z" fill="#FACD49"/>
<path d="M170.095 11.1902L167.817 13.4714L176.553 22.1958L178.832 19.9145L170.095 11.1902Z" fill="#FACD49"/>
<path d="M167.834 19.9221L170.115 22.2002L178.84 13.4636L176.558 11.1856L167.834 19.9221Z" fill="#FACD49"/>
<path d="M78.3338 34.3108L76.0557 36.592L84.7922 45.3164L87.0703 43.0351L78.3338 34.3108Z" fill="#FACD49"/>
<path d="M76.0605 43.0588L78.3418 45.3369L87.0662 36.6004L84.7849 34.3223L76.0605 43.0588Z" fill="#FACD49"/>
<path d="M101.28 34.3098L99.002 36.5911L107.738 45.3154L110.017 43.0341L101.28 34.3098Z" fill="#FACD49"/>
<path d="M99.0178 43.053L101.299 45.3311L110.023 36.5945L107.742 34.3164L99.0178 43.053Z" fill="#FACD49"/>
<path d="M124.238 34.2788L121.96 36.5601L130.697 45.2844L132.975 43.0031L124.238 34.2788Z" fill="#FACD49"/>
<path d="M121.943 43.0339L124.224 45.312L132.949 36.5755L130.667 34.2974L121.943 43.0339Z" fill="#FACD49"/>
<path d="M147.179 34.2724L144.901 36.5537L153.638 45.2781L155.916 42.9968L147.179 34.2724Z" fill="#FACD49"/>
<path d="M144.895 43.0146L147.176 45.2927L155.9 36.5562L153.619 34.2781L144.895 43.0146Z" fill="#FACD49"/>
<path d="M170.125 34.2717L167.847 36.553L176.584 45.2773L178.862 42.9961L170.125 34.2717Z" fill="#FACD49"/>
<path d="M167.852 43.0088L170.133 45.2869L178.858 36.5503L176.576 34.2722L167.852 43.0088Z" fill="#FACD49"/>
<path d="M78.3574 55.7929L76.0793 58.0742L84.8159 66.7986L87.094 64.5173L78.3574 55.7929Z" fill="#FACD49"/>
<path d="M76.0727 64.5229L78.354 66.801L87.0784 58.0645L84.7971 55.7864L76.0727 64.5229Z" fill="#FACD49"/>
<path d="M101.303 55.7739L99.0249 58.0552L107.761 66.7795L110.04 64.4983L101.303 55.7739Z" fill="#FACD49"/>
<path d="M99.0298 64.5166L101.311 66.7947L110.035 58.0581L107.754 55.78L99.0298 64.5166Z" fill="#FACD49"/>
<path d="M124.231 55.7553L121.953 58.0366L130.69 66.761L132.968 64.4797L124.231 55.7553Z" fill="#FACD49"/>
<path d="M121.968 64.51L124.25 66.7881L132.974 58.0515L130.693 55.7734L121.968 64.51Z" fill="#FACD49"/>
<path d="M147.189 55.7419L144.911 58.0232L153.648 66.7476L155.926 64.4663L147.189 55.7419Z" fill="#FACD49"/>
<path d="M144.894 64.4909L147.176 66.769L155.9 58.0325L153.619 55.7544L144.894 64.4909Z" fill="#FACD49"/>
<path d="M170.131 55.7358L167.853 58.0171L176.589 66.7414L178.867 64.4602L170.131 55.7358Z" fill="#FACD49"/>
<path d="M167.864 64.4546L170.146 66.7327L178.87 57.9961L176.589 55.718L167.864 64.4546Z" fill="#FACD49"/>
<path d="M190.906 216.279L188.628 218.561L197.364 227.285L199.643 225.004L190.906 216.279Z" fill="#FACD49"/>
<path d="M188.624 225.019L190.905 227.297L199.63 218.56L197.348 216.282L188.624 225.019Z" fill="#FACD49"/>
<path d="M213.852 216.261L211.574 218.542L220.311 227.267L222.589 224.985L213.852 216.261Z" fill="#FACD49"/>
<path d="M211.581 225.012L213.863 227.29L222.587 218.554L220.306 216.276L211.581 225.012Z" fill="#FACD49"/>
<path d="M236.824 216.26L234.546 218.541L243.282 227.266L245.56 224.984L236.824 216.26Z" fill="#FACD49"/>
<path d="M234.52 224.981L236.801 227.259L245.526 218.522L243.244 216.244L234.52 224.981Z" fill="#FACD49"/>
<path d="M259.751 216.241L257.473 218.523L266.21 227.247L268.488 224.966L259.751 216.241Z" fill="#FACD49"/>
<path d="M257.458 224.975L259.74 227.253L268.464 218.516L266.183 216.238L257.458 224.975Z" fill="#FACD49"/>
<path d="M282.698 216.205L280.419 218.486L289.156 227.211L291.434 224.929L282.698 216.205Z" fill="#FACD49"/>
<path d="M280.434 224.968L282.715 227.246L291.439 218.51L289.158 216.231L280.434 224.968Z" fill="#FACD49"/>
<path d="M190.937 239.361L188.658 241.642L197.395 250.367L199.673 248.085L190.937 239.361Z" fill="#FACD49"/>
<path d="M188.642 248.105L190.924 250.383L199.648 241.647L197.367 239.368L188.642 248.105Z" fill="#FACD49"/>
<path d="M213.864 239.342L211.586 241.624L220.322 250.348L222.601 248.067L213.864 239.342Z" fill="#FACD49"/>
<path d="M211.58 248.099L213.862 250.377L222.586 241.64L220.305 239.362L211.58 248.099Z" fill="#FACD49"/>
<path d="M236.823 239.311L234.545 241.593L243.282 250.317L245.56 248.036L236.823 239.311Z" fill="#FACD49"/>
<path d="M234.525 248.062L236.806 250.34L245.531 241.604L243.249 239.325L234.525 248.062Z" fill="#FACD49"/>
<path d="M259.781 239.305L257.503 241.586L266.239 250.311L268.518 248.029L259.781 239.305Z" fill="#FACD49"/>
<path d="M257.494 248.043L259.775 250.321L268.5 241.584L266.218 239.306L257.494 248.043Z" fill="#FACD49"/>
<path d="M282.71 239.304L280.432 241.586L289.168 250.31L291.446 248.029L282.71 239.304Z" fill="#FACD49"/>
<path d="M280.433 248.037L282.714 250.315L291.438 241.579L289.157 239.301L280.433 248.037Z" fill="#FACD49"/>
<path d="M190.941 260.843L188.663 263.125L197.4 271.849L199.678 269.568L190.941 260.843Z" fill="#FACD49"/>
<path d="M188.654 269.569L190.936 271.847L199.66 263.111L197.379 260.833L188.654 269.569Z" fill="#FACD49"/>
<path d="M213.888 260.807L211.61 263.088L220.346 271.812L222.624 269.531L213.888 260.807Z" fill="#FACD49"/>
<path d="M211.594 269.562L213.875 271.841L222.599 263.104L220.318 260.826L211.594 269.562Z" fill="#FACD49"/>
<path d="M236.834 260.77L234.556 263.052L243.292 271.776L245.57 269.495L236.834 260.77Z" fill="#FACD49"/>
<path d="M234.568 269.539L236.85 271.817L245.574 263.08L243.293 260.802L234.568 269.539Z" fill="#FACD49"/>
<path d="M259.774 260.757L257.496 263.039L266.233 271.763L268.511 269.482L259.774 260.757Z" fill="#FACD49"/>
<path d="M257.494 269.52L259.775 271.798L268.5 263.061L266.218 260.783L257.494 269.52Z" fill="#FACD49"/>
<path d="M282.733 260.769L280.455 263.05L289.191 271.775L291.469 269.493L282.733 260.769Z" fill="#FACD49"/>
<path d="M280.428 269.501L282.709 271.779L291.433 263.043L289.152 260.765L280.428 269.501Z" fill="#FACD49"/>
<path d="M190.875 147.883L188.597 150.165L197.333 158.889L199.612 156.608L190.875 147.883Z" fill="#FACD49"/>
<path d="M188.587 156.655L190.868 158.933L199.593 150.197L197.311 147.919L188.587 156.655Z" fill="#FACD49"/>
<path d="M213.816 147.895L211.538 150.176L220.275 158.901L222.553 156.619L213.816 147.895Z" fill="#FACD49"/>
<path d="M211.539 156.619L213.821 158.897L222.545 150.16L220.264 147.882L211.539 156.619Z" fill="#FACD49"/>
<path d="M236.762 147.876L234.484 150.158L243.221 158.882L245.499 156.601L236.762 147.876Z" fill="#FACD49"/>
<path d="M234.459 156.63L236.741 158.908L245.465 150.172L243.184 147.894L234.459 156.63Z" fill="#FACD49"/>
<path d="M259.69 147.858L257.412 150.139L266.148 158.864L268.426 156.582L259.69 147.858Z" fill="#FACD49"/>
<path d="M257.416 156.606L259.697 158.884L268.421 150.147L266.14 147.869L257.416 156.606Z" fill="#FACD49"/>
<path d="M282.649 147.844L280.371 150.125L289.108 158.85L291.386 156.569L282.649 147.844Z" fill="#FACD49"/>
<path d="M280.361 156.587L282.642 158.865L291.366 150.129L289.085 147.851L280.361 156.587Z" fill="#FACD49"/>
<path d="M190.875 170.978L188.597 173.259L197.334 181.983L199.612 179.702L190.875 170.978Z" fill="#FACD49"/>
<path d="M188.6 179.737L190.881 182.015L199.606 173.278L197.324 171L188.6 179.737Z" fill="#FACD49"/>
<path d="M213.833 170.964L211.555 173.245L220.292 181.969L222.57 179.688L213.833 170.964Z" fill="#FACD49"/>
<path d="M211.543 179.718L213.825 181.996L222.549 173.259L220.268 170.981L211.543 179.718Z" fill="#FACD49"/>
<path d="M236.774 170.958L234.496 173.239L243.232 181.964L245.51 179.682L236.774 170.958Z" fill="#FACD49"/>
<path d="M234.495 179.699L236.776 181.977L245.5 173.241L243.219 170.962L234.495 179.699Z" fill="#FACD49"/>
<path d="M259.72 170.939L257.442 173.221L266.179 181.945L268.457 179.664L259.72 170.939Z" fill="#FACD49"/>
<path d="M257.434 179.693L259.715 181.971L268.439 173.234L266.158 170.956L257.434 179.693Z" fill="#FACD49"/>
<path d="M282.662 170.908L280.384 173.189L289.121 181.914L291.399 179.633L282.662 170.908Z" fill="#FACD49"/>
<path d="M280.379 179.656L282.66 181.934L291.384 173.198L289.103 170.919L280.379 179.656Z" fill="#FACD49"/>
<path d="M190.898 192.459L188.62 194.741L197.356 203.465L199.635 201.184L190.898 192.459Z" fill="#FACD49"/>
<path d="M188.594 201.2L190.876 203.479L199.6 194.742L197.319 192.464L188.594 201.2Z" fill="#FACD49"/>
<path d="M213.839 192.428L211.561 194.71L220.298 203.434L222.576 201.153L213.839 192.428Z" fill="#FACD49"/>
<path d="M211.538 201.182L213.819 203.46L222.544 194.723L220.262 192.445L211.538 201.182Z" fill="#FACD49"/>
<path d="M236.798 192.423L234.52 194.704L243.257 203.428L245.535 201.147L236.798 192.423Z" fill="#FACD49"/>
<path d="M234.508 201.163L236.789 203.441L245.513 194.705L243.232 192.427L234.508 201.163Z" fill="#FACD49"/>
<path d="M259.726 192.404L257.448 194.685L266.184 203.409L268.462 201.128L259.726 192.404Z" fill="#FACD49"/>
<path d="M257.446 201.157L259.728 203.435L268.452 194.698L266.171 192.42L257.446 201.157Z" fill="#FACD49"/>
<path d="M282.673 192.385L280.395 194.667L289.131 203.391L291.409 201.11L282.673 192.385Z" fill="#FACD49"/>
<path d="M280.404 201.133L282.685 203.411L291.409 194.674L289.128 192.396L280.404 201.133Z" fill="#FACD49"/>
<path d="M190.827 79.5481L188.549 81.8293L197.285 90.5537L199.563 88.2724L190.827 79.5481Z" fill="#FACD49"/>
<path d="M188.54 88.2746L190.821 90.5527L199.545 81.8162L197.264 79.5381L188.54 88.2746Z" fill="#FACD49"/>
<path d="M213.754 79.5117L211.476 81.793L220.213 90.5173L222.491 88.236L213.754 79.5117Z" fill="#FACD49"/>
<path d="M211.478 88.2685L213.76 90.5466L222.484 81.8101L220.203 79.532L211.478 88.2685Z" fill="#FACD49"/>
<path d="M236.714 79.4983L234.436 81.7795L243.172 90.5039L245.45 88.2226L236.714 79.4983Z" fill="#FACD49"/>
<path d="M234.44 88.2495L236.722 90.5276L245.446 81.791L243.165 79.513L234.44 88.2495Z" fill="#FACD49"/>
<path d="M259.659 79.4797L257.381 81.761L266.118 90.4853L268.396 88.2041L259.659 79.4797Z" fill="#FACD49"/>
<path d="M257.379 88.2432L259.66 90.5212L268.385 81.7847L266.103 79.5066L257.379 88.2432Z" fill="#FACD49"/>
<path d="M282.605 79.479L280.327 81.7603L289.064 90.4846L291.342 88.2033L282.605 79.479Z" fill="#FACD49"/>
<path d="M280.3 88.2373L282.581 90.5154L291.305 81.7788L289.024 79.5007L280.3 88.2373Z" fill="#FACD49"/>
<path d="M190.839 102.612L188.561 104.893L197.298 113.617L199.576 111.336L190.839 102.612Z" fill="#FACD49"/>
<path d="M188.557 111.361L190.839 113.639L199.563 104.903L197.282 102.625L188.557 111.361Z" fill="#FACD49"/>
<path d="M213.785 102.593L211.507 104.875L220.243 113.599L222.521 111.318L213.785 102.593Z" fill="#FACD49"/>
<path d="M211.514 111.337L213.795 113.615L222.52 104.879L220.238 102.601L211.514 111.337Z" fill="#FACD49"/>
<path d="M236.731 102.593L234.453 104.874L243.19 113.598L245.468 111.317L236.731 102.593Z" fill="#FACD49"/>
<path d="M234.435 111.331L236.717 113.609L245.441 104.873L243.16 102.595L234.435 111.331Z" fill="#FACD49"/>
<path d="M259.672 102.561L257.394 104.843L266.131 113.567L268.409 111.286L259.672 102.561Z" fill="#FACD49"/>
<path d="M257.379 111.312L259.66 113.59L268.385 104.854L266.103 102.575L257.379 111.312Z" fill="#FACD49"/>
<path d="M282.618 102.542L280.34 104.824L289.077 113.548L291.355 111.267L282.618 102.542Z" fill="#FACD49"/>
<path d="M280.335 111.305L282.617 113.583L291.341 104.847L289.06 102.569L280.335 111.305Z" fill="#FACD49"/>
<path d="M190.862 124.076L188.584 126.358L197.32 135.082L199.598 132.801L190.862 124.076Z" fill="#FACD49"/>
<path d="M188.588 132.808L190.869 135.086L199.593 126.349L197.312 124.071L188.588 132.808Z" fill="#FACD49"/>
<path d="M213.809 124.075L211.531 126.357L220.267 135.081L222.545 132.8L213.809 124.075Z" fill="#FACD49"/>
<path d="M211.527 132.801L213.808 135.079L222.532 126.343L220.251 124.065L211.527 132.801Z" fill="#FACD49"/>
<path d="M236.736 124.074L234.458 126.356L243.195 135.08L245.473 132.799L236.736 124.074Z" fill="#FACD49"/>
<path d="M234.447 132.813L236.729 135.091L245.453 126.354L243.172 124.076L234.447 132.813Z" fill="#FACD49"/>
<path d="M259.695 124.026L257.417 126.307L266.154 135.031L268.432 132.75L259.695 124.026Z" fill="#FACD49"/>
<path d="M257.392 132.776L259.673 135.054L268.397 126.318L266.116 124.04L257.392 132.776Z" fill="#FACD49"/>
<path d="M282.624 124.025L280.346 126.306L289.082 135.031L291.361 132.749L282.624 124.025Z" fill="#FACD49"/>
<path d="M280.349 132.77L282.63 135.048L291.355 126.311L289.073 124.033L280.349 132.77Z" fill="#FACD49"/>
<path d="M190.783 11.1819L188.505 13.4631L197.242 22.1875L199.52 19.9062L190.783 11.1819Z" fill="#FACD49"/>
<path d="M188.497 19.9236L190.778 22.2017L199.502 13.4651L197.221 11.187L188.497 19.9236Z" fill="#FACD49"/>
<path d="M213.724 11.1508L211.446 13.4321L220.182 22.1565L222.46 19.8752L213.724 11.1508Z" fill="#FACD49"/>
<path d="M211.441 19.8874L213.722 22.1655L222.447 13.429L220.165 11.1509L211.441 19.8874Z" fill="#FACD49"/>
<path d="M236.652 11.1323L234.374 13.4136L243.111 22.1379L245.389 19.8567L236.652 11.1323Z" fill="#FACD49"/>
<path d="M234.38 19.8811L236.661 22.1592L245.385 13.4226L243.104 11.1445L234.38 19.8811Z" fill="#FACD49"/>
<path d="M259.598 11.1138L257.32 13.395L266.057 22.1194L268.335 19.8381L259.598 11.1138Z" fill="#FACD49"/>
<path d="M257.337 19.875L259.618 22.1531L268.343 13.4165L266.061 11.1384L257.337 19.875Z" fill="#FACD49"/>
<path d="M282.57 11.1128L280.292 13.394L289.028 22.1184L291.306 19.8371L282.57 11.1128Z" fill="#FACD49"/>
<path d="M280.294 19.8257L282.575 22.1038L291.299 13.3672L289.018 11.0891L280.294 19.8257Z" fill="#FACD49"/>
<path d="M190.796 34.2458L188.518 36.5271L197.254 45.2515L199.532 42.9702L190.796 34.2458Z" fill="#FACD49"/>
<path d="M188.515 42.9929L190.796 45.271L199.521 36.5344L197.239 34.2563L188.515 42.9929Z" fill="#FACD49"/>
<path d="M213.754 34.2324L211.476 36.5137L220.213 45.238L222.491 42.9568L213.754 34.2324Z" fill="#FACD49"/>
<path d="M211.441 42.9736L213.722 45.2517L222.447 36.5152L220.165 34.2371L211.441 42.9736Z" fill="#FACD49"/>
<path d="M236.665 34.196L234.387 36.4773L243.124 45.2017L245.402 42.9204L236.665 34.196Z" fill="#FACD49"/>
<path d="M234.399 42.9675L236.68 45.2456L245.404 36.5091L243.123 34.231L234.399 42.9675Z" fill="#FACD49"/>
<path d="M259.611 34.1953L257.333 36.4766L266.07 45.2009L268.348 42.9196L259.611 34.1953Z" fill="#FACD49"/>
<path d="M257.355 42.9436L259.636 45.2217L268.361 36.4851L266.08 34.207L257.355 42.9436Z" fill="#FACD49"/>
<path d="M282.556 34.1943L280.278 36.4756L289.015 45.1999L291.293 42.9187L282.556 34.1943Z" fill="#FACD49"/>
<path d="M280.275 42.955L282.557 45.2332L291.281 36.4966L289 34.2185L280.275 42.955Z" fill="#FACD49"/>
<path d="M190.801 55.7099L188.523 57.9912L197.259 66.7156L199.538 64.4343L190.801 55.7099Z" fill="#FACD49"/>
<path d="M188.528 64.4563L190.809 66.7344L199.533 57.9978L197.252 55.7197L188.528 64.4563Z" fill="#FACD49"/>
<path d="M213.747 55.7092L211.469 57.9905L220.206 66.7148L222.484 64.4336L213.747 55.7092Z" fill="#FACD49"/>
<path d="M211.466 64.4502L213.748 66.7283L222.472 57.9917L220.191 55.7136L211.466 64.4502Z" fill="#FACD49"/>
<path d="M236.689 55.6601L234.41 57.9414L243.147 66.6658L245.425 64.3845L236.689 55.6601Z" fill="#FACD49"/>
<path d="M234.429 64.4135L236.71 66.6917L245.435 57.9551L243.153 55.677L234.429 64.4135Z" fill="#FACD49"/>
<path d="M259.635 55.6599L257.356 57.9412L266.093 66.6655L268.371 64.3843L259.635 55.6599Z" fill="#FACD49"/>
<path d="M257.349 64.4077L259.63 66.6858L268.355 57.9492L266.073 55.6712L257.349 64.4077Z" fill="#FACD49"/>
<path d="M282.58 55.6589L280.302 57.9402L289.039 66.6645L291.317 64.3833L282.58 55.6589Z" fill="#FACD49"/>
<path d="M280.288 64.4192L282.569 66.6973L291.294 57.9607L289.012 55.6826L280.288 64.4192Z" fill="#FACD49"/>
<path d="M306.984 216.208L304.706 218.49L313.443 227.214L315.721 224.933L306.984 216.208Z" fill="#FACD49"/>
<path d="M304.687 224.932L306.968 227.21L315.692 218.474L313.411 216.196L304.687 224.932Z" fill="#FACD49"/>
<path d="M306.985 239.285L304.707 241.566L313.444 250.291L315.722 248.009L306.985 239.285Z" fill="#FACD49"/>
<path d="M304.7 248.031L306.981 250.309L315.705 241.573L313.424 239.294L304.7 248.031Z" fill="#FACD49"/>
<path d="M306.99 260.749L304.712 263.031L313.449 271.755L315.727 269.474L306.99 260.749Z" fill="#FACD49"/>
<path d="M304.713 269.495L306.994 271.773L315.718 263.036L313.437 260.758L304.713 269.495Z" fill="#FACD49"/>
<path d="M306.923 147.825L304.645 150.106L313.381 158.83L315.659 156.549L306.923 147.825Z" fill="#FACD49"/>
<path d="M304.626 156.581L306.907 158.859L315.632 150.123L313.351 147.844L304.626 156.581Z" fill="#FACD49"/>
<path d="M306.936 170.906L304.658 173.188L313.395 181.912L315.673 179.631L306.936 170.906Z" fill="#FACD49"/>
<path d="M304.663 179.65L306.944 181.928L315.668 173.192L313.387 170.914L304.663 179.65Z" fill="#FACD49"/>
<path d="M306.959 192.371L304.681 194.652L313.418 203.376L315.696 201.095L306.959 192.371Z" fill="#FACD49"/>
<path d="M304.675 201.114L306.956 203.392L315.68 194.656L313.399 192.378L304.675 201.114Z" fill="#FACD49"/>
<path d="M306.863 79.4587L304.584 81.74L313.321 90.4643L315.599 88.1831L306.863 79.4587Z" fill="#FACD49"/>
<path d="M304.585 88.2126L306.866 90.4907L315.591 81.7542L313.309 79.4761L304.585 88.2126Z" fill="#FACD49"/>
<path d="M306.875 102.54L304.596 104.822L313.333 113.546L315.611 111.265L306.875 102.54Z" fill="#FACD49"/>
<path d="M304.584 111.299L306.865 113.577L315.59 104.841L313.308 102.563L304.584 111.299Z" fill="#FACD49"/>
<path d="M306.899 124.005L304.621 126.286L313.357 135.01L315.636 132.729L306.899 124.005Z" fill="#FACD49"/>
<path d="M304.597 132.763L306.878 135.042L315.603 126.305L313.321 124.027L304.597 132.763Z" fill="#FACD49"/>
<path d="M306.826 11.093L304.548 13.3743L313.285 22.0986L315.563 19.8174L306.826 11.093Z" fill="#FACD49"/>
<path d="M304.542 19.8374L306.823 22.1155L315.547 13.3789L313.266 11.1008L304.542 19.8374Z" fill="#FACD49"/>
<path d="M306.857 34.1745L304.579 36.4558L313.316 45.1802L315.594 42.8989L306.857 34.1745Z" fill="#FACD49"/>
<path d="M304.56 42.906L306.841 45.1841L315.565 36.4475L313.284 34.1694L304.56 42.906Z" fill="#FACD49"/>
<path d="M306.862 55.6391L304.584 57.9204L313.321 66.6448L315.599 64.3635L306.862 55.6391Z" fill="#FACD49"/>
<path d="M304.572 64.3701L306.853 66.6482L315.577 57.9116L313.296 55.6335L304.572 64.3701Z" fill="#FACD49"/>
</g>
</svg>
